<svg width="550" height="361" viewBox="0 0 550 361" fill="none" xmlns="http://www.w3.org/2000/svg">
<path d="M379.496 21.6584L518.678 1.09857C523.595 0.372249 528.151 3.77244 528.853 8.69315L548.841 148.794C549.976 156.744 540.926 162.135 534.52 157.324L486.424 121.202C481.561 117.55 474.64 118.57 470.995 123.476L327.538 316.522C324.555 320.536 318.892 321.371 314.913 318.382L199.164 231.451C194.299 227.797 187.373 228.82 183.729 233.731L47.7122 417.07C44.7309 421.088 39.0646 421.925 35.0836 418.935L4.57603 396.023C0.629776 393.059 -0.172969 387.45 2.77932 383.464L173.624 152.859C176.604 148.837 182.273 147.997 186.256 150.988L301.994 237.91C306.86 241.565 313.784 240.542 317.428 235.63L425.883 89.4444C429.496 84.5736 428.517 77.7133 423.692 74.0892L375.349 37.783C368.964 32.9874 371.577 22.8282 379.496 21.6584Z" fill="url(#paint0_linear_207_61)" fill-opacity="0.45" stroke="url(#paint1_linear_207_61)" stroke-width="2"/>
<defs>
<linearGradient id="paint0_linear_207_61" x1="112.635" y1="343.987" x2="242.184" y2="216.566" gradientUnits="userSpaceOnUse">
<stop stop-color="#E1AC46" stop-opacity="0.05"/>
<stop offset="1" stop-color="#E1AC46"/>
</linearGradient>
<linearGradient id="paint1_linear_207_61" x1="356.745" y1="265.634" x2="112.313" y2="332.646" gradientUnits="userSpaceOnUse">
<stop stop-color="#E1AC46"/>
<stop offset="1" stop-color="#E1AC46" stop-opacity="0"/>
</linearGradient>
</defs>
</svg>
