<svg width="30" height="30" viewBox="0 0 30 30" fill="none" xmlns="http://www.w3.org/2000/svg">
<path d="M29.9875 14.3481C30.0042 14.7618 30.0042 15.2437 29.9875 15.6576C29.6472 24.1727 22.1588 30.6675 13.6798 29.9451C10.499 29.6741 7.44584 28.3388 5.06426 26.2389L7.13263 23.3963L12.0311 26.7549L21.2428 13.4698L23.6747 15.1196L23.745 5.5559L14.8137 8.97003L17.3149 10.7352L10.804 20.0961L5.92007 16.7117L1.93103 22.3921C1.0731 20.8063 0.457226 19.1162 0.181005 17.3255C-1.32533 7.55631 6.78244 -0.940528 16.6018 0.084016C23.9172 0.847393 29.694 6.99302 29.9875 14.3481Z" fill="#1A2E47"/>
</svg>
