<svg width="27" height="27" viewBox="0 0 27 27" fill="none" xmlns="http://www.w3.org/2000/svg">
<g clip-path="url(#clip0_69_147)">
<path d="M10.125 18.1913L6.22128 14.2874C6.11712 14.1833 5.99346 14.1006 5.85737 14.0443C5.72128 13.9879 5.57541 13.9589 5.42811 13.9589C5.13061 13.9589 4.8453 14.0771 4.63494 14.2874C4.53078 14.3916 4.44815 14.5152 4.39178 14.6513C4.33541 14.7874 4.3064 14.9333 4.3064 15.0806C4.3064 15.3781 4.42458 15.6634 4.63494 15.8738L9.33764 20.5765C9.44171 20.6808 9.56533 20.7635 9.70142 20.82C9.83752 20.8765 9.98341 20.9055 10.1308 20.9055C10.2781 20.9055 10.424 20.8765 10.5601 20.82C10.6962 20.7635 10.8198 20.6808 10.9239 20.5765L22.8263 8.67398C23.0368 8.46362 23.155 8.17829 23.155 7.88076C23.1551 7.58323 23.0369 7.29787 22.8265 7.08746C22.6162 6.87705 22.3308 6.75882 22.0333 6.75879C21.7358 6.75875 21.4504 6.87692 21.24 7.08728L10.125 18.1913Z" fill="#E1AC46"/>
</g>
<defs>
<clipPath id="clip0_69_147">
<rect width="27" height="27" fill="white"/>
</clipPath>
</defs>
</svg>
