<svg width="33" height="26" viewBox="0 0 33 26" fill="none" xmlns="http://www.w3.org/2000/svg">
<path fill-rule="evenodd" clip-rule="evenodd" d="M31.1667 0C32.1792 0 33 0.82082 33 1.83333C33 2.84584 32.1792 3.66666 31.1667 3.66666H1.83333C0.82078 3.66666 0 2.84584 0 1.83333C0 0.82082 0.82078 0 1.83333 0H31.1667ZM25.6667 12.8333C25.6667 11.8208 24.8458 11 23.8333 11H1.83333C0.82078 11 0 11.8208 0 12.8333C0 13.8459 0.82078 14.6667 1.83333 14.6667H23.8333C24.8458 14.6667 25.6667 13.8459 25.6667 12.8333ZM14.6667 23.8333C14.6667 22.8208 13.8459 22 12.8333 22H1.83333C0.82078 22 0 22.8208 0 23.8333C0 24.8459 0.82078 25.6667 1.83333 25.6667H12.8333C13.8459 25.6667 14.6667 24.8459 14.6667 23.8333Z" fill="#E1AC46"/>
</svg>
