<svg width="36" height="36" viewBox="0 0 36 36" fill="none" xmlns="http://www.w3.org/2000/svg">
<path d="M28.125 0H7.875C5.78712 0.0022868 3.78541 0.832706 2.30906 2.30906C0.832706 3.78541 0.0022868 5.78712 0 7.875L0 28.125C0.0022868 30.2129 0.832706 32.2146 2.30906 33.6909C3.78541 35.1673 5.78712 35.9977 7.875 36H28.125C30.2129 35.9977 32.2146 35.1673 33.6909 33.6909C35.1673 32.2146 35.9977 30.2129 36 28.125V7.875C35.9977 5.78712 35.1673 3.78541 33.6909 2.30906C32.2146 0.832706 30.2129 0.0022868 28.125 0ZM33.7501 28.125C33.7484 29.6163 33.1552 31.0461 32.1007 32.1007C31.0461 33.1552 29.6163 33.7484 28.125 33.7501H7.875C6.38366 33.7484 4.95388 33.1552 3.89934 32.1007C2.8448 31.0461 2.25163 29.6163 2.24994 28.125V7.875C2.25163 6.38366 2.8448 4.95388 3.89934 3.89934C4.95388 2.8448 6.38366 2.25163 7.875 2.24994H28.125C29.6163 2.25163 31.0461 2.8448 32.1007 3.89934C33.1552 4.95388 33.7484 6.38366 33.7501 7.875V28.125Z" fill="#E1AC46"/>
<path d="M18 10.381C16.22 10.381 14.4799 10.9088 12.9999 11.8978C11.5198 12.8867 10.3663 14.2923 9.68509 15.9368C9.0039 17.5814 8.82567 19.391 9.17294 21.1368C9.52021 22.8827 10.3774 24.4863 11.6361 25.745C12.8947 27.0037 14.4984 27.8608 16.2442 28.2081C17.9901 28.5554 19.7997 28.3771 21.4442 27.696C23.0887 27.0148 24.4944 25.8612 25.4833 24.3812C26.4722 22.9011 27.0001 21.161 27.0001 19.381C26.9976 16.9948 26.0487 14.707 24.3613 13.0197C22.674 11.3324 20.3862 10.3834 18 10.381ZM18 25.3811C16.8133 25.3811 15.6533 25.0292 14.6666 24.3699C13.6798 23.7106 12.9108 22.7735 12.4567 21.6772C12.0025 20.5808 11.8837 19.3744 12.1152 18.2105C12.3467 17.0465 12.9182 15.9774 13.7573 15.1383C14.5964 14.2992 15.6656 13.7277 16.8295 13.4962C17.9934 13.2647 19.1998 13.3835 20.2962 13.8376C21.3926 14.2918 22.3296 15.0608 22.9889 16.0475C23.6482 17.0342 24.0001 18.1943 24.0001 19.381C23.9986 20.9719 23.3659 22.4971 22.241 23.622C21.1161 24.7469 19.5909 25.3795 18 25.3811Z" fill="#E1AC46"/>
<path d="M27.8606 5.96216C27.5044 5.96216 27.1562 6.06779 26.86 6.26569C26.5638 6.4636 26.333 6.74489 26.1967 7.07399C26.0604 7.40309 26.0247 7.76523 26.0942 8.1146C26.1637 8.46398 26.3352 8.7849 26.5871 9.03678C26.839 9.28867 27.1599 9.4602 27.5093 9.5297C27.8586 9.59919 28.2208 9.56353 28.5499 9.42721C28.879 9.29089 29.1603 9.06004 29.3582 8.76385C29.5561 8.46767 29.6617 8.11945 29.6617 7.76323C29.6612 7.28572 29.4713 6.82792 29.1336 6.49027C28.796 6.15262 28.3382 5.9627 27.8606 5.96216Z" fill="#E1AC46"/>
</svg>
