<svg width="30" height="42" viewBox="0 0 30 42" fill="none" xmlns="http://www.w3.org/2000/svg">
<path d="M4.81826 3.60655C7.40907 1.27819 11.0455 0 15 0C18.9545 0 22.5909 1.27819 25.1817 3.60655C28.3636 6.43698 30 10.6818 30 15.9783C30 27.4369 16.8636 40.9044 16.2727 41.4522C16.1072 41.6235 15.9095 41.7602 15.691 41.8543C15.4726 41.9483 15.2377 41.9978 15 41.9999C14.7617 42.0022 14.5255 41.9546 14.3064 41.8603C14.0873 41.766 13.8901 41.627 13.7273 41.4522C13.1364 40.9044 0 27.4369 0 15.9783C0 10.6827 1.63637 6.43698 4.81826 3.60655ZM15 37.4805C16.8226 35.4541 18.5226 33.3199 20.091 31.0892C24.1818 25.2457 26.3629 20.0414 26.3629 15.9783C26.3629 4.56532 17.681 3.65174 14.9993 3.65174C4.45385 3.65174 3.63576 13.1018 3.63576 15.9783C3.63645 24.0125 11.7728 33.9195 15 37.4805ZM15 7.89782C19 7.89782 22.2272 11.2305 22.2272 15.2934C22.2272 19.3563 19 22.6434 15 22.6434C11 22.6434 7.77279 19.3108 7.77279 15.2479C7.77279 11.185 11 7.89782 15 7.89782ZM15 19.4479C17.2273 19.4479 19.0455 17.5762 19.0455 15.2479C19.0455 12.9195 17.2273 11.0478 15 11.0478C12.7727 11.0478 10.9545 12.9195 10.9545 15.2479C10.9545 17.5762 12.7727 19.4479 15 19.4479Z" fill="#E1AC46"/>
</svg>
