<svg width="40" height="40" viewBox="0 0 40 40" fill="none" xmlns="http://www.w3.org/2000/svg">
<path d="M22.7733 37.1888C20.9437 36.6281 19.013 35.4645 17.0211 33.5674C14.5868 31.2487 12.3527 28.2766 10.4495 24.6909C8.63673 21.2764 7.33643 17.5899 6.77982 14.2748C5.95961 9.01981 6.99088 5.19009 9.85336 3.78006C10.0093 3.69233 10.1815 3.63719 10.3594 3.61799C10.5373 3.59879 10.7172 3.61592 10.8883 3.66836C11.0594 3.72079 11.218 3.80743 11.3546 3.92302C11.4912 4.03861 11.6029 4.18074 11.6829 4.34079C11.7706 4.49675 11.8258 4.6689 11.845 4.8468C11.8642 5.0247 11.847 5.20465 11.7946 5.37573C11.7422 5.54682 11.6555 5.70546 11.54 5.84206C11.4244 5.97865 11.2822 6.09034 11.1222 6.17035C9.41502 7.07618 8.79565 10.031 9.45272 13.9498C9.95848 16.9639 11.0774 20.3096 12.7996 23.5531C14.5218 26.7965 16.6651 29.5984 18.8783 31.7063C21.7553 34.4465 24.5503 35.5891 26.2576 34.6828C26.4145 34.5995 26.5864 34.5479 26.7633 34.531C26.9402 34.5141 27.1186 34.5322 27.2885 34.5843C27.4584 34.6364 27.6164 34.7214 27.7534 34.8346C27.8905 34.9477 28.0039 35.0867 28.0872 35.2437C28.1705 35.4006 28.2221 35.5724 28.239 35.7493C28.2559 35.9262 28.2378 36.1047 28.1857 36.2746C28.1336 36.4445 28.0486 36.6025 27.9355 36.7395C27.8223 36.8765 27.6833 36.9899 27.5264 37.0733C26.2007 37.6674 24.6028 37.7496 22.7733 37.1888Z" fill="#E1AC46"/>
<path d="M14.4504 16.7682C13.9276 16.6079 13.6157 16.2264 13.5146 15.6236C13.4649 15.4531 13.4535 15.2737 13.4811 15.0983C13.5087 14.9229 13.5747 14.7557 13.6744 14.6087C13.774 14.4618 13.9049 14.3386 14.0577 14.2481C14.2104 14.1575 14.3813 14.1018 14.5581 14.0849L18.0043 13.5686C18.6072 13.4675 19.4608 13.0142 19.5704 12.1902C19.6906 11.7981 19.5093 11.4566 19.328 11.1151L16.3772 5.35009C16.1049 4.83834 15.4922 4.50662 14.7984 4.43792L13.8943 4.58926L11.1228 6.17062C10.9668 6.25835 10.7947 6.31349 10.6168 6.33269C10.4389 6.35189 10.2589 6.33476 10.0878 6.28232C9.91676 6.22989 9.75811 6.14325 9.62152 6.02766C9.48493 5.91207 9.37324 5.76994 9.29323 5.60989C9.2055 5.45393 9.15036 5.28178 9.13116 5.10388C9.11196 4.92598 9.1291 4.74603 9.18153 4.57495C9.23397 4.40386 9.32061 4.24522 9.4362 4.10862C9.55179 3.97203 9.69392 3.86034 9.85397 3.78033L12.5852 2.33055C13.2402 1.96505 13.9869 1.7964 14.7354 1.84486C15.5447 1.87885 16.3328 2.11284 17.0295 2.52593C17.7262 2.93901 18.3096 3.5183 18.7276 4.21201L21.7184 9.84633C22.1556 10.7259 22.301 11.722 22.1335 12.6898C21.8742 14.4688 20.2679 15.9779 18.2887 16.3721L14.8425 16.8883C14.8825 16.7576 14.5811 16.8082 14.4504 16.7682ZM26.4008 37.0146C26.2275 36.9668 26.0667 36.8819 25.9295 36.7658C25.7923 36.6497 25.6819 36.5051 25.6061 36.3422C25.5184 36.1862 25.4632 36.0141 25.444 35.8362C25.4248 35.6583 25.442 35.4783 25.4944 35.3072C25.5468 35.1361 25.6335 34.9775 25.7491 34.8409C25.8647 34.7043 26.0068 34.5926 26.1668 34.5126L28.898 33.0628C29.2395 32.8815 29.4103 32.7909 29.5305 32.3988C29.8614 31.7854 29.931 31.0921 29.6591 30.5798L26.6682 24.9455C26.487 24.604 26.1349 24.3531 25.9136 24.1423C25.1695 23.7713 24.356 24.0938 23.8944 24.667L21.5357 27.2321C21.4226 27.3691 21.2808 27.4794 21.1202 27.5552C20.9596 27.631 20.7842 27.6704 20.6066 27.6706C20.4291 27.6708 20.2536 27.6318 20.0929 27.5563C19.9321 27.4809 19.79 27.3709 19.6766 27.2342C19.5396 27.1212 19.4293 26.9793 19.3535 26.8187C19.2777 26.6581 19.2383 26.4827 19.2381 26.3052C19.2379 26.1276 19.277 25.9521 19.3524 25.7914C19.4278 25.6306 19.5378 25.4885 19.6745 25.3751L22.0332 22.81C23.4687 21.3916 25.488 20.8667 27.2375 21.6888C28.0938 22.0823 28.7946 22.7498 29.2293 23.5859L32.2201 29.2202C33.0358 30.7567 32.9472 32.4452 31.9438 33.8532C31.4821 34.4265 31.0205 34.9997 30.3377 35.3623L27.4346 36.9034C27.2805 36.9955 27.1083 37.0531 26.9299 37.0722C26.7515 37.0913 26.571 37.0714 26.401 37.014L26.4008 37.0146Z" fill="#E1AC46"/>
<path d="M20.1593 27.5241C19.8979 27.444 19.6766 27.2332 19.4552 27.0224C18.2478 25.3657 17.0803 23.5783 15.9528 21.6602C14.9346 19.7777 14.1044 17.7994 13.4741 15.7541C13.2423 15.1112 13.6133 14.3672 14.427 14.0447C15.2006 13.8524 15.9444 14.2243 16.1764 14.8668C16.7812 16.6247 17.4773 18.5535 18.5138 20.3009C19.5502 22.0482 20.5876 23.7957 21.7049 25.2817C22.2382 25.8741 22.1286 26.6981 21.4055 27.1914C21.1146 27.6741 20.6825 27.6846 20.1598 27.5245L20.1593 27.5241Z" fill="#E1AC46"/>
</svg>
