<svg width="56" height="56" viewBox="0 0 56 56" fill="none" xmlns="http://www.w3.org/2000/svg">
<g clip-path="url(#clip0_69_55)">
<path d="M50.4447 19.9873L48.0273 18.4406L47.3153 18.5388L36.4855 34.3041L30.4263 30.6441C26.3244 35.0255 21.7609 45.6763 15.6775 47.1656C2.55075 50.38 4.3926 29.4976 11.6669 24.1286C11.155 28.5212 10.3486 33.2261 10.7369 37.6624C11.1872 42.8135 13.8442 43.4169 17.1159 39.7114L28.8637 22.3567L34.971 26.3391L42.5064 15.2152C43.1193 14.1414 39.4689 13.0891 40.1258 12.3443L50.2882 8.51484C51.3161 8.35395 50.9283 9.55433 50.9283 9.55433L50.4447 19.9873Z" fill="#E1AC46"/>
</g>
<defs>
<clipPath id="clip0_69_55">
<rect width="56" height="56" fill="white"/>
</clipPath>
</defs>
</svg>
